<svg xmlns="http://www.w3.org/2000/svg" viewBox="0 0 800 600" role="img" aria-labelledby="t"><title id="t">Illustration of a swing ride with chairs flying outward under an open sky</title><rect width="800" height="600" fill="#DFF0FB"/><ellipse cx="130" cy="110" rx="70" ry="27" fill="#fff" opacity=".9"/><ellipse cx="180" cy="95" rx="50" ry="19" fill="#fff" opacity=".9"/><ellipse cx="660" cy="80" rx="80" ry="30" fill="#fff" opacity=".9"/><ellipse cx="610" cy="100" rx="45" ry="17" fill="#fff" opacity=".9"/><path d="M100 360 A300 96 0 0 0 700 360" fill="none" stroke="#2F7FC1" stroke-width="3" opacity=".28"/><path d="M60 360 A340 109 0 0 0 740 360" fill="none" stroke="#2F7FC1" stroke-width="3" opacity=".28"/><path d="M0 520 Q200 490 400 515 T800 505 V600 H0 Z" fill="#CFE8C9"/><rect x="388" y="190" width="24" height="335" fill="#0B1B3F"/><line x1="560.0" y1="196.0" x2="690.0" y2="345.0" stroke="#0B1B3F" stroke-width="2" opacity=".7"/><line x1="538.6" y1="210.4" x2="651.1" y2="376.9" stroke="#0B1B3F" stroke-width="2" opacity=".7"/><line x1="480.0" y1="220.9" x2="545.0" y2="400.3" stroke="#0B1B3F" stroke-width="2" opacity=".7"/><line x1="400.0" y1="224.8" x2="400.0" y2="408.8" stroke="#0B1B3F" stroke-width="2" opacity=".7"/><line x1="320.0" y1="220.9" x2="255.0" y2="400.3" stroke="#0B1B3F" stroke-width="2" opacity=".7"/><line x1="261.4" y1="210.4" x2="148.9" y2="376.9" stroke="#0B1B3F" stroke-width="2" opacity=".7"/><line x1="240.0" y1="196.0" x2="110.0" y2="345.0" stroke="#0B1B3F" stroke-width="2" opacity=".7"/><line x1="261.4" y1="181.6" x2="148.9" y2="313.1" stroke="#0B1B3F" stroke-width="2" opacity=".7"/><line x1="320.0" y1="171.1" x2="255.0" y2="289.7" stroke="#0B1B3F" stroke-width="2" opacity=".7"/><line x1="400.0" y1="167.2" x2="400.0" y2="281.2" stroke="#0B1B3F" stroke-width="2" opacity=".7"/><line x1="480.0" y1="171.1" x2="545.0" y2="289.7" stroke="#0B1B3F" stroke-width="2" opacity=".7"/><line x1="538.6" y1="181.6" x2="651.1" y2="313.1" stroke="#0B1B3F" stroke-width="2" opacity=".7"/><rect x="679.0" y="341.0" width="22" height="14" rx="4" fill="#FFC629"/><rect x="640.1" y="372.9" width="22" height="14" rx="4" fill="#E5352B"/><rect x="534.0" y="396.3" width="22" height="14" rx="4" fill="#FFC629"/><rect x="389.0" y="404.8" width="22" height="14" rx="4" fill="#E5352B"/><rect x="244.0" y="396.3" width="22" height="14" rx="4" fill="#FFC629"/><rect x="137.9" y="372.9" width="22" height="14" rx="4" fill="#E5352B"/><rect x="99.0" y="341.0" width="22" height="14" rx="4" fill="#FFC629"/><rect x="137.9" y="309.1" width="22" height="14" rx="4" fill="#E5352B"/><rect x="244.0" y="285.7" width="22" height="14" rx="4" fill="#FFC629"/><rect x="389.0" y="277.2" width="22" height="14" rx="4" fill="#E5352B"/><rect x="534.0" y="285.7" width="22" height="14" rx="4" fill="#FFC629"/><rect x="640.1" y="309.1" width="22" height="14" rx="4" fill="#E5352B"/><ellipse cx="400" cy="190" rx="170" ry="30" fill="#2F7FC1"/><ellipse cx="400" cy="182" rx="120" ry="18" fill="#fff" opacity=".35"/><circle cx="400" cy="150" r="12" fill="#FFC629"/><path d="M400 162 V172" stroke="#0B1B3F" stroke-width="4"/></svg>
